<svg width="316" height="92" viewBox="0 0 316 92" fill="none" xmlns="http://www.w3.org/2000/svg">
<path d="M0 91.0474V0.0473633H46.5L62.5 54.5474L77.5 0.0473633H125V91.0474H97V18.0474L77.5 91.0474H46.5L26.5 18.0474V91.0474H0Z" fill="#E30611"/>
<path d="M132 25.5474V0.0473633H210V25.5474H185.5L185 91.0474H157.5V25.5474H132Z" fill="#E30611"/>
<path d="M308 25.0475V0.047539C308 0.047539 245.459 -0.0592773 243.5 0.0473195C241.541 0.153916 239.5 0.54732 237.5 1.04734C235.5 1.54737 234.79 1.78475 233 2.54732C230.258 3.71572 227.5 5.74789 226 7.04754C223.049 9.60481 221.5 11.5293 219.5 15.0475C218.5 16.8067 217 21.0475 216.5 25.0475C216.5 25.0475 215.721 31.5475 217 36.0475C217.995 39.5475 219.786 43.0475 221.5 45.0475C224.5 48.5475 227.236 51.3237 233 54.0475C236.5 55.7015 239 56.5207 244.5 57.0475C250 57.5744 286.5 57.0475 286.5 57.0475V65.5476H216.5V66.5476L216.5 91H284.5C284.5 91 290.536 90.3543 294.5 89.0476C300.228 87.1595 304.235 85.3121 308.5 81.0476C310.5 79.0476 312.087 76.5476 313 74.5476C313.913 72.5476 314.486 70.7182 315 68.0476C315.385 66.0476 315.5 62.5475 315 58.5475C314.747 56.5247 314.534 55.7667 314 54.0475C312.599 49.5374 310 45.5475 308 43.5475C306 41.5475 301.832 39.0473 297.5 37.0475C293.168 35.0477 286.5 34.0474 284 34.0475C281.5 34.0476 244.5 34.0475 244.5 34.0475V25.0475H308Z" fill="#E30611"/>
</svg>
